<svg width="23" height="27" viewBox="0 0 23 27" fill="none" xmlns="http://www.w3.org/2000/svg">
<path d="M11.5 0C6.05608 0 1.6429 4.41317 1.6429 9.85711V15.748L0.481225 16.9097C0.0113692 17.3796 -0.129177 18.0861 0.125104 18.7001C0.379384 19.314 0.978433 19.7142 1.6429 19.7142H21.3571C22.0216 19.7142 22.6206 19.314 22.8749 18.7001C23.1292 18.0861 22.9886 17.3796 22.5187 16.9097L21.3571 15.748V9.85711C21.3571 4.41317 16.9439 0 11.5 0Z" fill="#3E619B"/>
<path d="M11.4998 26.2855C8.77788 26.2855 6.57129 24.079 6.57129 21.3569H16.4284C16.4284 24.079 14.2219 26.2855 11.4998 26.2855Z" fill="#3E619B"/>
</svg>
