<svg width="21" height="24" viewBox="0 0 21 24" fill="none" xmlns="http://www.w3.org/2000/svg">
<path fill-rule="evenodd" clip-rule="evenodd" d="M3 2H18C18.5523 2 19 2.44772 19 3V20.625C19 21.1773 18.5523 21.625 18 21.625H3C2.44772 21.625 2 21.1773 2 20.625V3C2 2.44772 2.44772 2 3 2ZM0 3C0 1.34315 1.34315 0 3 0H18C19.6569 0 21 1.34315 21 3V20.625C21 22.2819 19.6569 23.625 18 23.625H3C1.34315 23.625 0 22.2819 0 20.625V3ZM6.5625 5.5625C6.01022 5.5625 5.5625 6.01022 5.5625 6.5625C5.5625 7.11478 6.01022 7.5625 6.5625 7.5625H14.4375C14.9898 7.5625 15.4375 7.11478 15.4375 6.5625C15.4375 6.01022 14.9898 5.5625 14.4375 5.5625H6.5625ZM5.5625 11.8125C5.5625 11.2602 6.01022 10.8125 6.5625 10.8125H14.4375C14.9898 10.8125 15.4375 11.2602 15.4375 11.8125C15.4375 12.3648 14.9898 12.8125 14.4375 12.8125H6.5625C6.01022 12.8125 5.5625 12.3648 5.5625 11.8125ZM6.5625 16.0625C6.01022 16.0625 5.5625 16.5102 5.5625 17.0625C5.5625 17.6148 6.01022 18.0625 6.5625 18.0625H14.4375C14.9898 18.0625 15.4375 17.6148 15.4375 17.0625C15.4375 16.5102 14.9898 16.0625 14.4375 16.0625H6.5625Z" fill="white"/>
</svg>
