<svg width="31" height="31" viewBox="0 0 31 31" fill="none" xmlns="http://www.w3.org/2000/svg">
<path fill-rule="evenodd" clip-rule="evenodd" d="M17.75 7.25C17.75 9.59721 15.8472 11.5 13.5 11.5C11.1528 11.5 9.25 9.59721 9.25 7.25C9.25 4.90279 11.1528 3 13.5 3C15.8472 3 17.75 4.90279 17.75 7.25ZM19.75 7.25C19.75 10.7018 16.9518 13.5 13.5 13.5C10.0482 13.5 7.25 10.7018 7.25 7.25C7.25 3.79822 10.0482 1 13.5 1C16.9518 1 19.75 3.79822 19.75 7.25ZM9.80393 17.0625H17.458C21.071 17.0625 24 19.9915 24 23.6045C24 23.8229 23.8229 24 23.6045 24H3.13357C3.0598 24 3 23.9402 3 23.8664C3 20.1087 6.04622 17.0625 9.80393 17.0625ZM1 23.8664C1 19.0042 4.94165 15.0625 9.80393 15.0625H17.458C22.1756 15.0625 26 18.8869 26 23.6045C26 24.9275 24.9275 26 23.6045 26H3.13357C1.95523 26 1 25.0448 1 23.8664Z" fill="#0D1014"/>
</svg>
